<?xml version="1.0" encoding="UTF-8"?>
<svg version="1.1" xmlns="http://www.w3.org/2000/svg" width="225" height="225">
<path d="M0 0 C74.25 0 148.5 0 225 0 C225 74.25 225 148.5 225 225 C150.75 225 76.5 225 0 225 C0 150.75 0 76.5 0 0 Z " fill="#FEFEFE" transform="translate(0,0)"/>
<path d="M0 0 C3.90923429 0.34223366 6.71945677 1.77623345 10.0546875 3.765625 C10.99957031 4.32636719 11.94445312 4.88710937 12.91796875 5.46484375 C13.89378906 6.05394531 14.86960938 6.64304687 15.875 7.25 C16.84308594 7.82363281 17.81117187 8.39726563 18.80859375 8.98828125 C24.04784101 12.11757315 29.09654363 15.36679834 34 19 C33.46884894 23.51478398 31.63379708 26.34666857 29 30 C25.02023537 29.42975183 22.40395648 28.22807678 19.05859375 26.0234375 C18.14529297 25.435625 17.23199219 24.8478125 16.29101562 24.2421875 C14.38235372 22.99326157 12.47611262 21.74062851 10.57226562 20.484375 C9.66025391 19.89914063 8.74824219 19.31390625 7.80859375 18.7109375 C6.98157959 18.16743652 6.15456543 17.62393555 5.30249023 17.06396484 C3.10262746 15.84150244 3.10262746 15.84150244 0.88574219 16.05322266 C-1.72303627 17.36301588 -2.53081489 18.91798636 -3.98046875 21.4375 C-4.50447266 22.33210938 -5.02847656 23.22671875 -5.56835938 24.1484375 C-6.10267578 25.08945313 -6.63699219 26.03046875 -7.1875 27 C-8.26346093 28.85466701 -9.34023988 30.70885977 -10.41796875 32.5625 C-10.89000732 33.38878906 -11.3620459 34.21507812 -11.84838867 35.06640625 C-13 37 -13 37 -14 38 C-16.5 38.125 -16.5 38.125 -19 38 C-19.33 37.67 -19.66 37.34 -20 37 C-19.65089414 31.60750895 -18.09606855 27.75707391 -15.25390625 23.26171875 C-14.88273178 22.65487747 -14.51155731 22.04803619 -14.12913513 21.42280579 C-12.95126339 19.50399203 -11.75693382 17.59603685 -10.5625 15.6875 C-9.76394335 14.38800255 -8.96640723 13.08787739 -8.16992188 11.78710938 C-2.36675719 2.36675719 -2.36675719 2.36675719 0 0 Z " fill="#E32146" transform="translate(79,62)"/>
<path d="M0 0 C4.44666853 1.57473607 6.87128718 4.85169478 9.94140625 8.33203125 C11.16099842 9.68270709 12.38103836 11.03297877 13.6015625 12.3828125 C14.17068359 13.01541992 14.73980469 13.64802734 15.32617188 14.29980469 C18.6116113 18.499282 18.6116113 18.499282 23.25390625 20.14453125 C26.4718211 18.76542489 28.23969886 16.8840778 30.546875 14.296875 C31.87890625 13.01953125 31.87890625 13.01953125 33.87890625 13.01953125 C33.87890625 12.35953125 33.87890625 11.69953125 33.87890625 11.01953125 C35.453125 9.2578125 35.453125 9.2578125 37.56640625 7.33203125 C38.25089844 6.68878906 38.93539062 6.04554688 39.640625 5.3828125 C41.87890625 4.01953125 41.87890625 4.01953125 44.5234375 4.1875 C46.87890625 5.01953125 46.87890625 5.01953125 48.87890625 7.01953125 C48.6906194 9.93797743 48.31859666 11.53048784 46.34765625 13.72265625 C45.373125 14.48835937 45.373125 14.48835937 44.37890625 15.26953125 C41.15334173 17.91703761 38.17564685 20.66336542 35.25390625 23.64453125 C28.09903738 30.8239873 28.09903738 30.8239873 24.87890625 33.01953125 C20.77158803 32.74338139 18.90484305 31.51269359 16.171875 28.51953125 C15.50599365 27.80120117 14.8401123 27.08287109 14.15405273 26.34277344 C13.46512939 25.57610352 12.77620605 24.80943359 12.06640625 24.01953125 C11.3587915 23.24512695 10.65117676 22.47072266 9.92211914 21.67285156 C8.52778187 20.14452055 7.13759129 18.61239417 5.75195312 17.07617188 C4.2022559 15.37457524 2.62990652 13.71008322 1.01953125 12.06640625 C0.2925 11.3084375 -0.43453125 10.55046875 -1.18359375 9.76953125 C-1.79332031 9.145625 -2.40304688 8.52171875 -3.03125 7.87890625 C-4.12109375 6.01953125 -4.12109375 6.01953125 -3.8671875 3.34765625 C-2.80263512 0.02580695 -2.80263512 0.02580695 0 0 Z " fill="#E22348" transform="translate(65.12109375,129.98046875)"/>
<path d="M0 0 C7.26 0 14.52 0 22 0 C21.01 1.65 20.02 3.3 19 5 C15.86328125 5.48828125 15.86328125 5.48828125 12.3125 5.3125 C11.13300781 5.26738281 9.95351562 5.22226563 8.73828125 5.17578125 C7.83464844 5.11777344 6.93101563 5.05976562 6 5 C6 5.66 6 6.32 6 7 C10.95 7 15.9 7 21 7 C19 11 19 11 18 12 C15.98035801 12.07244053 13.95832876 12.08377188 11.9375 12.0625 C10.28041016 12.04896484 10.28041016 12.04896484 8.58984375 12.03515625 C7.73519531 12.02355469 6.88054687 12.01195313 6 12 C6 12.66 6 13.32 6 14 C11.28 14 16.56 14 22 14 C20 18 20 18 19 19 C17.58429877 19.08651611 16.164405 19.10704904 14.74609375 19.09765625 C13.9770874 19.09515869 13.20808105 19.09266113 12.41577148 19.09008789 C11.43294189 19.08098389 10.4501123 19.07187988 9.4375 19.0625 C4.7659375 19.0315625 4.7659375 19.0315625 0 19 C0 12.73 0 6.46 0 0 Z " fill="#DE274A" transform="translate(98,103)"/>
<path d="M0 0 C13.96683673 -0.68877551 13.96683673 -0.68877551 17.8125 1.875 C20.60921179 4.59180574 20.94303123 5.39613102 21.3125 9.3125 C20.95018869 13.58777346 20.03853708 15.04827827 17 18 C14.29283758 18.90238747 12.76223232 19.11851302 9.98828125 19.09765625 C8.85229492 19.09282227 8.85229492 19.09282227 7.69335938 19.08789062 C6.90767578 19.07951172 6.12199219 19.07113281 5.3125 19.0625 C4.51521484 19.05798828 3.71792969 19.05347656 2.89648438 19.04882812 C0.93095743 19.0370585 -1.03453085 19.01912348 -3 19 C-3 15.04 -3 11.08 -3 7 C-1.02 7 0.96 7 3 7 C3 9.31 3 11.62 3 14 C8.445 13.505 8.445 13.505 14 13 C14 11.02 14 9.04 14 7 C11.0384304 5.5192152 8.16493705 5.64685963 4.875 5.4375 C3.59367187 5.35371094 2.31234375 5.26992187 0.9921875 5.18359375 C-0.48894531 5.09271484 -0.48894531 5.09271484 -2 5 C-1.34 3.35 -0.68 1.7 0 0 Z " fill="#101010" transform="translate(74,103)"/>
<path d="M0 0 C3.0625 -0.625 3.0625 -0.625 7 0 C9.96599371 3.16067283 14 7.48346076 14 12 C16.96542359 9.20402919 19.24596727 6.66751363 21.375 3.1875 C22.59765625 1.3828125 22.59765625 1.3828125 24 0 C27.8125 -0.4375 27.8125 -0.4375 31 0 C28.70569522 3.69260888 26.36603546 7.35295949 24 11 C23.47535156 11.82886719 22.95070312 12.65773438 22.41015625 13.51171875 C21.92417969 14.22972656 21.43820313 14.94773437 20.9375 15.6875 C20.51339844 16.33074219 20.08929688 16.97398438 19.65234375 17.63671875 C18 19 18 19 15.21484375 19.73046875 C10.10562738 18.56956539 8.37913949 14.85481424 5.625 10.625 C4.80708984 9.43390625 4.80708984 9.43390625 3.97265625 8.21875 C0 2.34439615 0 2.34439615 0 0 Z " fill="#090909" transform="translate(123,103)"/>
<path d="M0 0 C2.3125 0.4375 2.3125 0.4375 3.3125 1.4375 C3.0907138 4.00388321 2.72713185 6.53884914 2.37109375 9.08984375 C2.35175781 9.86457031 2.33242188 10.63929687 2.3125 11.4375 C2.9725 12.0975 3.6325 12.7575 4.3125 13.4375 C4.5 16 4.5 16 4.3125 18.4375 C3.3125 19.4375 3.3125 19.4375 0.98828125 19.75 C-2.52874322 19.33925262 -3.32773111 18.16348449 -5.5 15.4375 C-6.10457031 14.695 -6.70914063 13.9525 -7.33203125 13.1875 C-7.77933594 12.61 -8.22664063 12.0325 -8.6875 11.4375 C-4.9342344 0.80324746 -4.9342344 0.80324746 0 0 Z " fill="#060606" transform="translate(54.6875,105.5625)"/>
<path d="M0 0 C2.43847451 0.11397544 4.87513174 0.24070974 7.3125 0.375 C8.00279297 0.4059375 8.69308594 0.436875 9.40429688 0.46875 C13.06990789 0.68124919 14.87900792 0.91933861 18 3 C18.25 6.0625 18.25 6.0625 18 9 C17 10 17 10 14.49609375 10.09765625 C12.98208984 10.08025391 12.98208984 10.08025391 11.4375 10.0625 C10.42558594 10.05347656 9.41367188 10.04445313 8.37109375 10.03515625 C7.19740234 10.01775391 7.19740234 10.01775391 6 10 C6 7.36 6 4.72 6 2 C4.02 2 2.04 2 0 2 C0 1.34 0 0.68 0 0 Z " fill="#F4F4F4" transform="translate(71,107)"/>
<path d="M0 0 C4.95 0 9.9 0 15 0 C13 4 13 4 12 5 C9.98035801 5.07244053 7.95832876 5.08377188 5.9375 5.0625 C4.83277344 5.05347656 3.72804688 5.04445313 2.58984375 5.03515625 C1.30787109 5.01775391 1.30787109 5.01775391 0 5 C0.66 4.01 1.32 3.02 2 2 C1.34 1.34 0.68 0.68 0 0 Z " fill="#DE4763" transform="translate(104,110)"/>
</svg>
